<mxfile host="app.diagrams.net" modified="2024-05-14T00:54:07.850Z" agent="Mozilla/5.0 (Macintosh; Intel Mac OS X 10_15_7) AppleWebKit/537.36 (KHTML, like Gecko) Chrome/124.0.0.0 Safari/537.36" etag="zOUtwZsXdiwxjudFNhzm" version="24.4.0" type="google">
  <diagram name="Page-1" id="McJjLRh181ekNu45r5A8">
    <mxGraphModel grid="1" page="1" gridSize="10" guides="1" tooltips="1" connect="1" arrows="1" fold="1" pageScale="1" pageWidth="5000" pageHeight="5000" math="0" shadow="0">
      <root>
        <mxCell id="0" />
        <mxCell id="1" parent="0" />
        <mxCell id="CPomrfPhx8_Q5q7yHn4K-64" value="" style="html=1;outlineConnect=0;fillColor=#CCCCCC;strokeColor=#6881B3;gradientColor=none;gradientDirection=north;strokeWidth=2;shape=mxgraph.networks.cloud;fontColor=#ffffff;" vertex="1" parent="1">
          <mxGeometry x="350" y="330" width="150" height="90" as="geometry" />
        </mxCell>
        <mxCell id="CPomrfPhx8_Q5q7yHn4K-65" value="" style="html=1;outlineConnect=0;fillColor=#CCCCCC;strokeColor=#6881B3;gradientColor=none;gradientDirection=north;strokeWidth=2;shape=mxgraph.networks.cloud;fontColor=#ffffff;" vertex="1" parent="1">
          <mxGeometry x="350" y="740" width="150" height="90" as="geometry" />
        </mxCell>
        <mxCell id="CPomrfPhx8_Q5q7yHn4K-66" value="" style="html=1;outlineConnect=0;fillColor=#CCCCCC;strokeColor=#6881B3;gradientColor=none;gradientDirection=north;strokeWidth=2;shape=mxgraph.networks.cloud;fontColor=#ffffff;" vertex="1" parent="1">
          <mxGeometry x="350" y="530" width="150" height="90" as="geometry" />
        </mxCell>
        <mxCell id="CPomrfPhx8_Q5q7yHn4K-71" value="" style="strokeWidth=2;html=1;shape=mxgraph.flowchart.annotation_2;align=left;labelPosition=right;pointerEvents=1;direction=west;horizontal=1;" vertex="1" parent="1">
          <mxGeometry x="590" y="360" width="120" height="470" as="geometry" />
        </mxCell>
        <mxCell id="CPomrfPhx8_Q5q7yHn4K-80" value="" style="group" connectable="0" vertex="1" parent="1">
          <mxGeometry x="1220" y="375" width="250" height="400" as="geometry" />
        </mxCell>
        <mxCell id="CPomrfPhx8_Q5q7yHn4K-68" value="" style="strokeWidth=2;html=1;shape=mxgraph.flowchart.database;whiteSpace=wrap;" vertex="1" parent="CPomrfPhx8_Q5q7yHn4K-80">
          <mxGeometry width="250" height="400" as="geometry" />
        </mxCell>
        <mxCell id="CPomrfPhx8_Q5q7yHn4K-69" value="&lt;font style=&quot;font-size: 15px;&quot;&gt;&lt;b style=&quot;font-size: 15px;&quot;&gt;NoSQL&lt;/b&gt;&lt;/font&gt;&lt;div&gt;&lt;b&gt;IoT&amp;nbsp;&lt;/b&gt;&lt;b style=&quot;background-color: initial;&quot;&gt;Database&lt;/b&gt;&lt;/div&gt;&lt;div&gt;&lt;div&gt;&lt;font style=&quot;font-size: 15px;&quot;&gt;&lt;b style=&quot;font-size: 15px;&quot;&gt;&lt;br&gt;&lt;/b&gt;&lt;/font&gt;&lt;/div&gt;&lt;/div&gt;" style="text;html=1;align=center;verticalAlign=middle;whiteSpace=wrap;rounded=0;fontSize=15;" vertex="1" parent="CPomrfPhx8_Q5q7yHn4K-80">
          <mxGeometry x="95" y="215" width="60" height="30" as="geometry" />
        </mxCell>
        <mxCell id="CPomrfPhx8_Q5q7yHn4K-84" value="Encrypted" style="text;html=1;align=center;verticalAlign=middle;resizable=0;points=[];autosize=1;strokeColor=none;fillColor=none;" vertex="1" parent="1">
          <mxGeometry x="600" y="310" width="80" height="30" as="geometry" />
        </mxCell>
        <mxCell id="CPomrfPhx8_Q5q7yHn4K-85" value="ETL" style="swimlane;fontStyle=1;childLayout=stackLayout;horizontal=1;startSize=26;horizontalStack=0;resizeParent=1;resizeParentMax=0;resizeLast=0;collapsible=1;marginBottom=0;align=center;fontSize=14;" vertex="1" parent="1">
          <mxGeometry x="750" y="520" width="160" height="170" as="geometry" />
        </mxCell>
        <mxCell id="CPomrfPhx8_Q5q7yHn4K-87" value="Validation" style="text;strokeColor=none;fillColor=none;spacingLeft=4;spacingRight=4;overflow=hidden;rotatable=0;points=[[0,0.5],[1,0.5]];portConstraint=eastwest;fontSize=12;whiteSpace=wrap;html=1;" vertex="1" parent="CPomrfPhx8_Q5q7yHn4K-85">
          <mxGeometry y="26" width="160" height="30" as="geometry" />
        </mxCell>
        <mxCell id="CPomrfPhx8_Q5q7yHn4K-89" value="Reformat followed Line Protocol Defined by InfluxDB (NoSQL)&amp;nbsp;" style="text;strokeColor=none;fillColor=none;spacingLeft=4;spacingRight=4;overflow=hidden;rotatable=0;points=[[0,0.5],[1,0.5]];portConstraint=eastwest;fontSize=12;whiteSpace=wrap;html=1;" vertex="1" parent="CPomrfPhx8_Q5q7yHn4K-85">
          <mxGeometry y="56" width="160" height="54" as="geometry" />
        </mxCell>
        <mxCell id="CPomrfPhx8_Q5q7yHn4K-92" value="Batch Processing" style="text;strokeColor=none;fillColor=none;spacingLeft=4;spacingRight=4;overflow=hidden;rotatable=0;points=[[0,0.5],[1,0.5]];portConstraint=eastwest;fontSize=12;whiteSpace=wrap;html=1;" vertex="1" parent="CPomrfPhx8_Q5q7yHn4K-85">
          <mxGeometry y="110" width="160" height="30" as="geometry" />
        </mxCell>
        <mxCell id="CPomrfPhx8_Q5q7yHn4K-200" value="Incremental Processing" style="text;strokeColor=none;fillColor=none;spacingLeft=4;spacingRight=4;overflow=hidden;rotatable=0;points=[[0,0.5],[1,0.5]];portConstraint=eastwest;fontSize=12;whiteSpace=wrap;html=1;" vertex="1" parent="CPomrfPhx8_Q5q7yHn4K-85">
          <mxGeometry y="140" width="160" height="30" as="geometry" />
        </mxCell>
        <mxCell id="CPomrfPhx8_Q5q7yHn4K-90" value="" style="verticalLabelPosition=bottom;verticalAlign=top;html=1;strokeWidth=2;shape=mxgraph.arrows2.arrow;dy=0.53;dx=33.31;notch=0;" vertex="1" parent="1">
          <mxGeometry x="980" y="560" width="200" height="70" as="geometry" />
        </mxCell>
        <mxCell id="CPomrfPhx8_Q5q7yHn4K-93" value="&lt;font style=&quot;font-size: 15px;&quot;&gt;&lt;b&gt;Analysis Engine&lt;br&gt;on Cloud&lt;/b&gt;&lt;/font&gt;" style="rounded=0;whiteSpace=wrap;html=1;" vertex="1" parent="1">
          <mxGeometry x="1760" y="210" width="220" height="210" as="geometry" />
        </mxCell>
        <mxCell id="CPomrfPhx8_Q5q7yHn4K-95" value="Data Inquiry" style="text;html=1;align=center;verticalAlign=middle;resizable=0;points=[];autosize=1;strokeColor=none;fillColor=none;rotation=-40;rounded=0;" vertex="1" parent="1">
          <mxGeometry x="1550" y="375" width="90" height="30" as="geometry" />
        </mxCell>
        <mxCell id="CPomrfPhx8_Q5q7yHn4K-99" value="" style="endArrow=classic;html=1;rounded=0;" edge="1" parent="1">
          <mxGeometry width="50" height="50" relative="1" as="geometry">
            <mxPoint x="2020" y="328" as="sourcePoint" />
            <mxPoint x="2160" y="328.46000000000004" as="targetPoint" />
          </mxGeometry>
        </mxCell>
        <mxCell id="CPomrfPhx8_Q5q7yHn4K-101" value="Results" style="text;html=1;align=center;verticalAlign=middle;whiteSpace=wrap;rounded=0;" vertex="1" parent="1">
          <mxGeometry x="2040" y="290.00000000000006" width="90" height="30" as="geometry" />
        </mxCell>
        <mxCell id="CPomrfPhx8_Q5q7yHn4K-193" value="" style="edgeStyle=orthogonalEdgeStyle;rounded=0;orthogonalLoop=1;jettySize=auto;html=1;" edge="1" parent="1" source="CPomrfPhx8_Q5q7yHn4K-102" target="CPomrfPhx8_Q5q7yHn4K-192">
          <mxGeometry relative="1" as="geometry" />
        </mxCell>
        <mxCell id="CPomrfPhx8_Q5q7yHn4K-198" value="" style="edgeStyle=orthogonalEdgeStyle;rounded=0;orthogonalLoop=1;jettySize=auto;html=1;" edge="1" parent="1" source="CPomrfPhx8_Q5q7yHn4K-102" target="CPomrfPhx8_Q5q7yHn4K-93">
          <mxGeometry relative="1" as="geometry" />
        </mxCell>
        <mxCell id="CPomrfPhx8_Q5q7yHn4K-102" value="&lt;span style=&quot;font-size: 15px;&quot;&gt;&lt;b&gt;Data Scientists&lt;/b&gt;&lt;/span&gt;&lt;div&gt;&lt;span style=&quot;font-size: 15px;&quot;&gt;&lt;b&gt;and Analysts&lt;/b&gt;&lt;/span&gt;&lt;/div&gt;&lt;div&gt;&lt;div&gt;&lt;span style=&quot;font-size: 15px;&quot;&gt;&lt;br&gt;&lt;/span&gt;&lt;/div&gt;&lt;div&gt;&lt;span style=&quot;font-size: 15px;&quot;&gt;Quality Check&lt;/span&gt;&lt;/div&gt;&lt;div&gt;&lt;span style=&quot;font-size: 15px;&quot;&gt;Data Exploration&lt;/span&gt;&lt;/div&gt;&lt;div&gt;&lt;span style=&quot;font-size: 15px;&quot;&gt;Ad-hoc Analysis&lt;/span&gt;&lt;/div&gt;&lt;/div&gt;" style="rounded=0;whiteSpace=wrap;html=1;" vertex="1" parent="1">
          <mxGeometry x="1760" y="530" width="220" height="210" as="geometry" />
        </mxCell>
        <mxCell id="CPomrfPhx8_Q5q7yHn4K-104" value="Data Inquiry" style="text;html=1;align=center;verticalAlign=middle;resizable=0;points=[];autosize=1;strokeColor=none;fillColor=none;rounded=0;" vertex="1" parent="1">
          <mxGeometry x="1560" y="580" width="90" height="30" as="geometry" />
        </mxCell>
        <mxCell id="CPomrfPhx8_Q5q7yHn4K-108" value="" style="endArrow=classic;html=1;rounded=0;" edge="1" parent="1">
          <mxGeometry width="50" height="50" relative="1" as="geometry">
            <mxPoint x="2160" y="632" as="sourcePoint" />
            <mxPoint x="2020" y="632" as="targetPoint" />
          </mxGeometry>
        </mxCell>
        <mxCell id="CPomrfPhx8_Q5q7yHn4K-109" value="Results Inquiry" style="text;html=1;align=center;verticalAlign=middle;resizable=0;points=[];autosize=1;strokeColor=none;fillColor=none;" vertex="1" parent="1">
          <mxGeometry x="2040" y="590" width="100" height="30" as="geometry" />
        </mxCell>
        <mxCell id="CPomrfPhx8_Q5q7yHn4K-111" value="" style="endArrow=classic;html=1;rounded=0;" edge="1" parent="1">
          <mxGeometry width="50" height="50" relative="1" as="geometry">
            <mxPoint x="1510" y="618.46" as="sourcePoint" />
            <mxPoint x="1720" y="618" as="targetPoint" />
          </mxGeometry>
        </mxCell>
        <mxCell id="CPomrfPhx8_Q5q7yHn4K-112" value="&lt;font style=&quot;font-size: 15px;&quot;&gt;&lt;b&gt;Reporting Engine&lt;br&gt;&lt;/b&gt;&lt;/font&gt;" style="rounded=0;whiteSpace=wrap;html=1;" vertex="1" parent="1">
          <mxGeometry x="1760" y="1270" width="220" height="210" as="geometry" />
        </mxCell>
        <mxCell id="CPomrfPhx8_Q5q7yHn4K-114" value="&lt;span style=&quot;text-wrap: nowrap;&quot;&gt;Results Inquiry&lt;/span&gt;" style="text;html=1;align=center;verticalAlign=middle;whiteSpace=wrap;rounded=0;" vertex="1" parent="1">
          <mxGeometry x="2290" y="1330" width="90" height="30" as="geometry" />
        </mxCell>
        <mxCell id="CPomrfPhx8_Q5q7yHn4K-115" value="" style="endArrow=classic;html=1;rounded=0;exitX=0.5;exitY=1;exitDx=0;exitDy=0;entryX=1;entryY=0.5;entryDx=0;entryDy=0;" edge="1" parent="1" source="CPomrfPhx8_Q5q7yHn4K-56" target="CPomrfPhx8_Q5q7yHn4K-112">
          <mxGeometry width="50" height="50" relative="1" as="geometry">
            <mxPoint x="2165" y="1390" as="sourcePoint" />
            <mxPoint x="2025" y="1390" as="targetPoint" />
            <Array as="points">
              <mxPoint x="2665" y="1375" />
            </Array>
          </mxGeometry>
        </mxCell>
        <mxCell id="CPomrfPhx8_Q5q7yHn4K-120" value="" style="rounded=0;whiteSpace=wrap;html=1;fillColor=none;" vertex="1" parent="1">
          <mxGeometry x="290" y="250" width="270" height="620" as="geometry" />
        </mxCell>
        <mxCell id="CPomrfPhx8_Q5q7yHn4K-121" value="Data Collected from Sources" style="text;html=1;align=center;verticalAlign=middle;resizable=0;points=[];autosize=1;strokeColor=none;fillColor=none;" vertex="1" parent="1">
          <mxGeometry x="330" y="260" width="180" height="30" as="geometry" />
        </mxCell>
        <mxCell id="CPomrfPhx8_Q5q7yHn4K-181" value="" style="group" connectable="0" vertex="1" parent="1">
          <mxGeometry x="430" y="890" width="720" height="485" as="geometry" />
        </mxCell>
        <mxCell id="CPomrfPhx8_Q5q7yHn4K-118" value="" style="endArrow=classic;html=1;rounded=0;exitX=0;exitY=0.5;exitDx=0;exitDy=0;" edge="1" parent="CPomrfPhx8_Q5q7yHn4K-181" source="CPomrfPhx8_Q5q7yHn4K-112">
          <mxGeometry width="50" height="50" relative="1" as="geometry">
            <mxPoint x="1280" y="70" as="sourcePoint" />
            <mxPoint as="targetPoint" />
            <Array as="points">
              <mxPoint y="485" />
            </Array>
          </mxGeometry>
        </mxCell>
        <mxCell id="CPomrfPhx8_Q5q7yHn4K-119" value="&lt;b&gt;&lt;font style=&quot;font-size: 15px;&quot;&gt;KPI Reports&lt;/font&gt;&lt;/b&gt;" style="text;html=1;align=center;verticalAlign=middle;whiteSpace=wrap;rounded=1;strokeColor=default;" vertex="1" parent="CPomrfPhx8_Q5q7yHn4K-181">
          <mxGeometry x="540" y="400" width="180" height="70" as="geometry" />
        </mxCell>
        <mxCell id="CPomrfPhx8_Q5q7yHn4K-184" value="" style="group" connectable="0" vertex="1" parent="1">
          <mxGeometry x="1125" y="890" width="440" height="350" as="geometry" />
        </mxCell>
        <mxCell id="CPomrfPhx8_Q5q7yHn4K-178" value="" style="rounded=0;whiteSpace=wrap;html=1;fillColor=none;" vertex="1" parent="CPomrfPhx8_Q5q7yHn4K-184">
          <mxGeometry width="440" height="350" as="geometry" />
        </mxCell>
        <mxCell id="CPomrfPhx8_Q5q7yHn4K-144" value="Property 1" style="whiteSpace=wrap;html=1;align=center;" vertex="1" parent="CPomrfPhx8_Q5q7yHn4K-184">
          <mxGeometry x="35.84830508474579" y="88.9473684210526" width="67.79661016949154" height="33.68421052631579" as="geometry" />
        </mxCell>
        <mxCell id="CPomrfPhx8_Q5q7yHn4K-145" value="" style="edgeStyle=entityRelationEdgeStyle;fontSize=12;html=1;endArrow=ERoneToMany;rounded=0;exitX=1;exitY=0.5;exitDx=0;exitDy=0;" edge="1" parent="CPomrfPhx8_Q5q7yHn4K-184" source="CPomrfPhx8_Q5q7yHn4K-144">
          <mxGeometry width="100" height="100" relative="1" as="geometry">
            <mxPoint x="246.01779661016963" y="215.26315789473688" as="sourcePoint" />
            <mxPoint x="137.54322033898302" y="105.78947368421052" as="targetPoint" />
          </mxGeometry>
        </mxCell>
        <mxCell id="CPomrfPhx8_Q5q7yHn4K-146" value="Devices" style="whiteSpace=wrap;html=1;align=center;" vertex="1" parent="CPomrfPhx8_Q5q7yHn4K-184">
          <mxGeometry x="137.54322033898302" y="88.9473684210526" width="67.79661016949154" height="33.68421052631579" as="geometry" />
        </mxCell>
        <mxCell id="CPomrfPhx8_Q5q7yHn4K-155" value="&lt;span style=&quot;text-align: left;&quot;&gt;Measurements&lt;/span&gt;" style="swimlane;fontStyle=0;childLayout=stackLayout;horizontal=1;startSize=26;fillColor=none;horizontalStack=0;resizeParent=1;resizeParentMax=0;resizeLast=0;collapsible=1;marginBottom=0;whiteSpace=wrap;html=1;" vertex="1" parent="CPomrfPhx8_Q5q7yHn4K-184">
          <mxGeometry x="246.01779661016963" y="88.9473684210526" width="135.5932203389831" height="69.78947368421052" as="geometry" />
        </mxCell>
        <mxCell id="CPomrfPhx8_Q5q7yHn4K-157" value="measurement values: float" style="text;strokeColor=none;fillColor=none;align=left;verticalAlign=top;spacingLeft=4;spacingRight=4;overflow=hidden;rotatable=0;points=[[0,0.5],[1,0.5]];portConstraint=eastwest;whiteSpace=wrap;html=1;" vertex="1" parent="CPomrfPhx8_Q5q7yHn4K-155">
          <mxGeometry y="26" width="135.5932203389831" height="21.894736842105264" as="geometry" />
        </mxCell>
        <mxCell id="CPomrfPhx8_Q5q7yHn4K-158" value="timestamp: datetime" style="text;strokeColor=none;fillColor=none;align=left;verticalAlign=top;spacingLeft=4;spacingRight=4;overflow=hidden;rotatable=0;points=[[0,0.5],[1,0.5]];portConstraint=eastwest;whiteSpace=wrap;html=1;" vertex="1" parent="CPomrfPhx8_Q5q7yHn4K-155">
          <mxGeometry y="47.89473684210526" width="135.5932203389831" height="21.894736842105264" as="geometry" />
        </mxCell>
        <mxCell id="CPomrfPhx8_Q5q7yHn4K-162" value="" style="edgeStyle=entityRelationEdgeStyle;fontSize=12;html=1;endArrow=ERoneToMany;rounded=0;exitX=1;exitY=0.5;exitDx=0;exitDy=0;" edge="1" parent="CPomrfPhx8_Q5q7yHn4K-184">
          <mxGeometry width="100" height="100" relative="1" as="geometry">
            <mxPoint x="212.11949152542388" y="105.43578947368417" as="sourcePoint" />
            <mxPoint x="246.01779661016963" y="105.43578947368417" as="targetPoint" />
          </mxGeometry>
        </mxCell>
        <mxCell id="CPomrfPhx8_Q5q7yHn4K-170" value="Property 2" style="whiteSpace=wrap;html=1;align=center;" vertex="1" parent="CPomrfPhx8_Q5q7yHn4K-184">
          <mxGeometry x="35.84830508474579" y="181.57894736842104" width="67.79661016949154" height="33.68421052631579" as="geometry" />
        </mxCell>
        <mxCell id="CPomrfPhx8_Q5q7yHn4K-171" value="" style="edgeStyle=entityRelationEdgeStyle;fontSize=12;html=1;endArrow=ERoneToMany;rounded=0;exitX=1;exitY=0.5;exitDx=0;exitDy=0;" edge="1" parent="CPomrfPhx8_Q5q7yHn4K-184" source="CPomrfPhx8_Q5q7yHn4K-170">
          <mxGeometry width="100" height="100" relative="1" as="geometry">
            <mxPoint x="246.01779661016963" y="307.8947368421052" as="sourcePoint" />
            <mxPoint x="137.54322033898302" y="198.42105263157896" as="targetPoint" />
          </mxGeometry>
        </mxCell>
        <mxCell id="CPomrfPhx8_Q5q7yHn4K-172" value="Devices" style="whiteSpace=wrap;html=1;align=center;" vertex="1" parent="CPomrfPhx8_Q5q7yHn4K-184">
          <mxGeometry x="137.54322033898302" y="181.57894736842104" width="67.79661016949154" height="33.68421052631579" as="geometry" />
        </mxCell>
        <mxCell id="CPomrfPhx8_Q5q7yHn4K-173" value="&lt;span style=&quot;text-align: left;&quot;&gt;Measurements&lt;/span&gt;" style="swimlane;fontStyle=0;childLayout=stackLayout;horizontal=1;startSize=26;fillColor=none;horizontalStack=0;resizeParent=1;resizeParentMax=0;resizeLast=0;collapsible=1;marginBottom=0;whiteSpace=wrap;html=1;" vertex="1" parent="CPomrfPhx8_Q5q7yHn4K-184">
          <mxGeometry x="246.01779661016963" y="181.57894736842104" width="135.5932203389831" height="69.78947368421052" as="geometry" />
        </mxCell>
        <mxCell id="CPomrfPhx8_Q5q7yHn4K-174" value="measurement values: float" style="text;strokeColor=none;fillColor=none;align=left;verticalAlign=top;spacingLeft=4;spacingRight=4;overflow=hidden;rotatable=0;points=[[0,0.5],[1,0.5]];portConstraint=eastwest;whiteSpace=wrap;html=1;" vertex="1" parent="CPomrfPhx8_Q5q7yHn4K-173">
          <mxGeometry y="26" width="135.5932203389831" height="21.894736842105264" as="geometry" />
        </mxCell>
        <mxCell id="CPomrfPhx8_Q5q7yHn4K-175" value="timestamp: datetime" style="text;strokeColor=none;fillColor=none;align=left;verticalAlign=top;spacingLeft=4;spacingRight=4;overflow=hidden;rotatable=0;points=[[0,0.5],[1,0.5]];portConstraint=eastwest;whiteSpace=wrap;html=1;" vertex="1" parent="CPomrfPhx8_Q5q7yHn4K-173">
          <mxGeometry y="47.89473684210526" width="135.5932203389831" height="21.894736842105264" as="geometry" />
        </mxCell>
        <mxCell id="CPomrfPhx8_Q5q7yHn4K-176" value="" style="edgeStyle=entityRelationEdgeStyle;fontSize=12;html=1;endArrow=ERoneToMany;rounded=0;exitX=1;exitY=0.5;exitDx=0;exitDy=0;" edge="1" parent="CPomrfPhx8_Q5q7yHn4K-184">
          <mxGeometry width="100" height="100" relative="1" as="geometry">
            <mxPoint x="212.11949152542388" y="198.0673684210526" as="sourcePoint" />
            <mxPoint x="246.01779661016963" y="198.0673684210526" as="targetPoint" />
          </mxGeometry>
        </mxCell>
        <mxCell id="CPomrfPhx8_Q5q7yHn4K-179" value="&amp;nbsp;&lt;b&gt;&lt;font style=&quot;font-size: 15px;&quot;&gt;InfluxDB&lt;/font&gt;&lt;/b&gt;" style="text;html=1;align=center;verticalAlign=middle;whiteSpace=wrap;rounded=0;" vertex="1" parent="CPomrfPhx8_Q5q7yHn4K-184">
          <mxGeometry x="168.04999999999995" y="20" width="103.9" height="22.1" as="geometry" />
        </mxCell>
        <mxCell id="CPomrfPhx8_Q5q7yHn4K-183" value="&lt;meta charset=&quot;utf-8&quot;&gt;&lt;span style=&quot;color: rgb(0, 0, 0); font-family: Helvetica; font-size: 12px; font-style: normal; font-variant-ligatures: normal; font-variant-caps: normal; font-weight: 400; letter-spacing: normal; orphans: 2; text-align: center; text-indent: 0px; text-transform: none; widows: 2; word-spacing: 0px; -webkit-text-stroke-width: 0px; white-space: normal; background-color: rgb(251, 251, 251); text-decoration-thickness: initial; text-decoration-style: initial; text-decoration-color: initial; display: inline !important; float: none;&quot;&gt;Time Series Database Schema&lt;/span&gt;" style="text;html=1;align=center;verticalAlign=middle;whiteSpace=wrap;rounded=0;" vertex="1" parent="CPomrfPhx8_Q5q7yHn4K-184">
          <mxGeometry x="103.6400000000001" y="42.10000000000002" width="250" height="30" as="geometry" />
        </mxCell>
        <mxCell id="CPomrfPhx8_Q5q7yHn4K-197" value="" style="endArrow=none;dashed=1;html=1;dashPattern=1 3;strokeWidth=5;rounded=0;" edge="1" parent="CPomrfPhx8_Q5q7yHn4K-184">
          <mxGeometry width="50" height="50" relative="1" as="geometry">
            <mxPoint x="115" y="280" as="sourcePoint" />
            <mxPoint x="115" y="335" as="targetPoint" />
          </mxGeometry>
        </mxCell>
        <mxCell id="CPomrfPhx8_Q5q7yHn4K-185" value="" style="edgeStyle=orthogonalEdgeStyle;rounded=0;orthogonalLoop=1;jettySize=auto;html=1;" edge="1" parent="1" source="CPomrfPhx8_Q5q7yHn4K-68" target="CPomrfPhx8_Q5q7yHn4K-178">
          <mxGeometry relative="1" as="geometry" />
        </mxCell>
        <mxCell id="CPomrfPhx8_Q5q7yHn4K-189" value="" style="endArrow=classic;html=1;rounded=0;" edge="1" parent="1">
          <mxGeometry width="50" height="50" relative="1" as="geometry">
            <mxPoint x="1500" y="500" as="sourcePoint" />
            <mxPoint x="1710" y="320" as="targetPoint" />
          </mxGeometry>
        </mxCell>
        <mxCell id="CPomrfPhx8_Q5q7yHn4K-192" value="&lt;div&gt;&lt;br&gt;&lt;/div&gt;&lt;span style=&quot;font-size: 15px;&quot;&gt;Analytical Reports and/or Visualizations&lt;/span&gt;" style="rounded=1;whiteSpace=wrap;html=1;" vertex="1" parent="1">
          <mxGeometry x="1760" y="820" width="220" height="100" as="geometry" />
        </mxCell>
        <mxCell id="CPomrfPhx8_Q5q7yHn4K-199" value="Automated&lt;div&gt;Analysis&lt;/div&gt;&lt;div&gt;Test &amp;amp; Deployment&lt;/div&gt;" style="text;html=1;align=center;verticalAlign=middle;whiteSpace=wrap;rounded=0;" vertex="1" parent="1">
          <mxGeometry x="1880" y="430" width="60" height="100" as="geometry" />
        </mxCell>
        <mxCell id="CPomrfPhx8_Q5q7yHn4K-201" value="" style="group" connectable="0" vertex="1" parent="1">
          <mxGeometry x="2190" y="170" width="950" height="910" as="geometry" />
        </mxCell>
        <mxCell id="CPomrfPhx8_Q5q7yHn4K-1" value="Event Table" style="swimlane;whiteSpace=wrap;html=1;" vertex="1" parent="CPomrfPhx8_Q5q7yHn4K-201">
          <mxGeometry x="332.98969072164937" y="140" width="273.24742268041234" height="290" as="geometry" />
        </mxCell>
        <mxCell id="CPomrfPhx8_Q5q7yHn4K-2" value="(PK) Event ID" style="text;html=1;align=center;verticalAlign=middle;resizable=0;points=[];autosize=1;strokeColor=none;fillColor=none;" vertex="1" parent="CPomrfPhx8_Q5q7yHn4K-1">
          <mxGeometry x="-0.9793814432989689" y="28" width="100" height="30" as="geometry" />
        </mxCell>
        <mxCell id="CPomrfPhx8_Q5q7yHn4K-3" value="Event Start Time" style="text;html=1;align=center;verticalAlign=middle;resizable=0;points=[];autosize=1;strokeColor=none;fillColor=none;" vertex="1" parent="CPomrfPhx8_Q5q7yHn4K-1">
          <mxGeometry x="-0.9793814432989689" y="60" width="110" height="30" as="geometry" />
        </mxCell>
        <mxCell id="CPomrfPhx8_Q5q7yHn4K-5" value="Event Start Time" style="text;html=1;align=center;verticalAlign=middle;resizable=0;points=[];autosize=1;strokeColor=none;fillColor=none;" vertex="1" parent="CPomrfPhx8_Q5q7yHn4K-1">
          <mxGeometry x="-0.9793814432989689" y="93" width="110" height="30" as="geometry" />
        </mxCell>
        <mxCell id="CPomrfPhx8_Q5q7yHn4K-9" value="(FK) Event Type ID" style="text;html=1;align=center;verticalAlign=middle;resizable=0;points=[];autosize=1;strokeColor=none;fillColor=none;" vertex="1" parent="CPomrfPhx8_Q5q7yHn4K-1">
          <mxGeometry x="-4.896907216494845" y="123" width="130" height="30" as="geometry" />
        </mxCell>
        <mxCell id="CPomrfPhx8_Q5q7yHn4K-10" value="(FK) Property ID" style="text;html=1;align=center;verticalAlign=middle;resizable=0;points=[];autosize=1;strokeColor=none;fillColor=none;" vertex="1" parent="CPomrfPhx8_Q5q7yHn4K-1">
          <mxGeometry x="-0.9793814432989689" y="160" width="110" height="30" as="geometry" />
        </mxCell>
        <mxCell id="CPomrfPhx8_Q5q7yHn4K-28" value="Created at" style="text;html=1;align=center;verticalAlign=middle;resizable=0;points=[];autosize=1;strokeColor=none;fillColor=none;" vertex="1" parent="CPomrfPhx8_Q5q7yHn4K-1">
          <mxGeometry y="228" width="80" height="30" as="geometry" />
        </mxCell>
        <mxCell id="CPomrfPhx8_Q5q7yHn4K-54" value="Status" style="text;html=1;align=center;verticalAlign=middle;resizable=0;points=[];autosize=1;strokeColor=none;fillColor=none;" vertex="1" parent="CPomrfPhx8_Q5q7yHn4K-1">
          <mxGeometry y="198" width="60" height="30" as="geometry" />
        </mxCell>
        <mxCell id="CPomrfPhx8_Q5q7yHn4K-11" value="Event Type Table" style="swimlane;whiteSpace=wrap;html=1;" vertex="1" parent="CPomrfPhx8_Q5q7yHn4K-201">
          <mxGeometry x="656.1855670103091" y="238" width="195.8762886597938" height="250" as="geometry" />
        </mxCell>
        <mxCell id="CPomrfPhx8_Q5q7yHn4K-12" value="(PK) Event Type ID" style="text;html=1;align=center;verticalAlign=middle;resizable=0;points=[];autosize=1;strokeColor=none;fillColor=none;" vertex="1" parent="CPomrfPhx8_Q5q7yHn4K-11">
          <mxGeometry x="4.896907216494845" y="30" width="130" height="30" as="geometry" />
        </mxCell>
        <mxCell id="CPomrfPhx8_Q5q7yHn4K-14" value="Related Measurements IDs" style="text;html=1;align=center;verticalAlign=middle;resizable=0;points=[];autosize=1;strokeColor=none;fillColor=none;" vertex="1" parent="CPomrfPhx8_Q5q7yHn4K-11">
          <mxGeometry x="4.896907216494845" y="60" width="170" height="30" as="geometry" />
        </mxCell>
        <mxCell id="CPomrfPhx8_Q5q7yHn4K-15" value="Event Description" style="text;html=1;align=center;verticalAlign=middle;resizable=0;points=[];autosize=1;strokeColor=none;fillColor=none;" vertex="1" parent="CPomrfPhx8_Q5q7yHn4K-11">
          <mxGeometry x="4.896907216494845" y="89" width="120" height="30" as="geometry" />
        </mxCell>
        <mxCell id="CPomrfPhx8_Q5q7yHn4K-16" value="Safety Rank" style="text;html=1;align=center;verticalAlign=middle;resizable=0;points=[];autosize=1;strokeColor=none;fillColor=none;" vertex="1" parent="CPomrfPhx8_Q5q7yHn4K-11">
          <mxGeometry x="4.896907216494845" y="119" width="90" height="30" as="geometry" />
        </mxCell>
        <mxCell id="CPomrfPhx8_Q5q7yHn4K-20" value="Comfort Rank" style="text;html=1;align=center;verticalAlign=middle;resizable=0;points=[];autosize=1;strokeColor=none;fillColor=none;" vertex="1" parent="CPomrfPhx8_Q5q7yHn4K-11">
          <mxGeometry x="3.917525773195876" y="178" width="100" height="30" as="geometry" />
        </mxCell>
        <mxCell id="CPomrfPhx8_Q5q7yHn4K-17" value="Energy Rank" style="text;html=1;align=center;verticalAlign=middle;resizable=0;points=[];autosize=1;strokeColor=none;fillColor=none;" vertex="1" parent="CPomrfPhx8_Q5q7yHn4K-11">
          <mxGeometry x="4.896907216494845" y="148" width="90" height="30" as="geometry" />
        </mxCell>
        <mxCell id="CPomrfPhx8_Q5q7yHn4K-29" value="Created at" style="text;html=1;align=center;verticalAlign=middle;resizable=0;points=[];autosize=1;strokeColor=none;fillColor=none;" vertex="1" parent="CPomrfPhx8_Q5q7yHn4K-11">
          <mxGeometry x="3.917525773195876" y="208" width="80" height="30" as="geometry" />
        </mxCell>
        <mxCell id="CPomrfPhx8_Q5q7yHn4K-23" value="Property Table" style="swimlane;whiteSpace=wrap;html=1;" vertex="1" parent="CPomrfPhx8_Q5q7yHn4K-201">
          <mxGeometry x="78.35051546391742" y="268" width="195.8762886597938" height="180" as="geometry" />
        </mxCell>
        <mxCell id="CPomrfPhx8_Q5q7yHn4K-21" value="(PK) Property ID" style="text;html=1;align=center;verticalAlign=middle;resizable=0;points=[];autosize=1;strokeColor=none;fillColor=none;flipV=0;" vertex="1" parent="CPomrfPhx8_Q5q7yHn4K-23">
          <mxGeometry y="30" width="110" height="30" as="geometry" />
        </mxCell>
        <mxCell id="CPomrfPhx8_Q5q7yHn4K-25" value="Property Name" style="text;html=1;align=center;verticalAlign=middle;resizable=0;points=[];autosize=1;strokeColor=none;fillColor=none;flipV=0;" vertex="1" parent="CPomrfPhx8_Q5q7yHn4K-23">
          <mxGeometry y="60" width="100" height="30" as="geometry" />
        </mxCell>
        <mxCell id="CPomrfPhx8_Q5q7yHn4K-27" value="Created at" style="text;html=1;align=center;verticalAlign=middle;resizable=0;points=[];autosize=1;strokeColor=none;fillColor=none;flipV=0;" vertex="1" parent="CPomrfPhx8_Q5q7yHn4K-23">
          <mxGeometry y="120" width="80" height="30" as="geometry" />
        </mxCell>
        <mxCell id="CPomrfPhx8_Q5q7yHn4K-52" value="Geo Location&amp;nbsp;" style="text;html=1;align=center;verticalAlign=middle;resizable=0;points=[];autosize=1;strokeColor=none;fillColor=none;" vertex="1" parent="CPomrfPhx8_Q5q7yHn4K-23">
          <mxGeometry y="90" width="100" height="30" as="geometry" />
        </mxCell>
        <mxCell id="CPomrfPhx8_Q5q7yHn4K-37" value="&lt;b&gt;Measurement Table&lt;/b&gt;" style="swimlane;fontStyle=0;childLayout=stackLayout;horizontal=1;startSize=30;horizontalStack=0;resizeParent=1;resizeParentMax=0;resizeLast=0;collapsible=1;marginBottom=0;whiteSpace=wrap;html=1;" vertex="1" parent="CPomrfPhx8_Q5q7yHn4K-201">
          <mxGeometry x="401.54639175257716" y="618" width="215.46391752577318" height="180" as="geometry" />
        </mxCell>
        <mxCell id="CPomrfPhx8_Q5q7yHn4K-47" value="(PK) Linked Device ID" style="text;strokeColor=none;fillColor=none;align=left;verticalAlign=middle;spacingLeft=4;spacingRight=4;overflow=hidden;points=[[0,0.5],[1,0.5]];portConstraint=eastwest;rotatable=0;whiteSpace=wrap;html=1;" vertex="1" parent="CPomrfPhx8_Q5q7yHn4K-37">
          <mxGeometry y="30" width="215.46391752577318" height="30" as="geometry" />
        </mxCell>
        <mxCell id="CPomrfPhx8_Q5q7yHn4K-38" value="&lt;div&gt;&lt;span style=&quot;background-color: initial;&quot;&gt;Measurement ID&lt;/span&gt;&lt;br&gt;&lt;/div&gt;" style="text;strokeColor=none;fillColor=none;align=left;verticalAlign=middle;spacingLeft=4;spacingRight=4;overflow=hidden;points=[[0,0.5],[1,0.5]];portConstraint=eastwest;rotatable=0;whiteSpace=wrap;html=1;" vertex="1" parent="CPomrfPhx8_Q5q7yHn4K-37">
          <mxGeometry y="60" width="215.46391752577318" height="30" as="geometry" />
        </mxCell>
        <mxCell id="CPomrfPhx8_Q5q7yHn4K-39" value="Measurement Name" style="text;strokeColor=none;fillColor=none;align=left;verticalAlign=middle;spacingLeft=4;spacingRight=4;overflow=hidden;points=[[0,0.5],[1,0.5]];portConstraint=eastwest;rotatable=0;whiteSpace=wrap;html=1;" vertex="1" parent="CPomrfPhx8_Q5q7yHn4K-37">
          <mxGeometry y="90" width="215.46391752577318" height="30" as="geometry" />
        </mxCell>
        <mxCell id="CPomrfPhx8_Q5q7yHn4K-40" value="Property ID" style="text;strokeColor=none;fillColor=none;align=left;verticalAlign=middle;spacingLeft=4;spacingRight=4;overflow=hidden;points=[[0,0.5],[1,0.5]];portConstraint=eastwest;rotatable=0;whiteSpace=wrap;html=1;" vertex="1" parent="CPomrfPhx8_Q5q7yHn4K-37">
          <mxGeometry y="120" width="215.46391752577318" height="30" as="geometry" />
        </mxCell>
        <mxCell id="CPomrfPhx8_Q5q7yHn4K-46" value="Created At" style="text;strokeColor=none;fillColor=none;align=left;verticalAlign=middle;spacingLeft=4;spacingRight=4;overflow=hidden;points=[[0,0.5],[1,0.5]];portConstraint=eastwest;rotatable=0;whiteSpace=wrap;html=1;" vertex="1" parent="CPomrfPhx8_Q5q7yHn4K-37">
          <mxGeometry y="150" width="215.46391752577318" height="30" as="geometry" />
        </mxCell>
        <mxCell id="CPomrfPhx8_Q5q7yHn4K-48" value="" style="edgeStyle=entityRelationEdgeStyle;fontSize=12;html=1;endArrow=ERoneToMany;rounded=0;entryX=0;entryY=0.5;entryDx=0;entryDy=0;entryPerimeter=0;" edge="1" parent="CPomrfPhx8_Q5q7yHn4K-201" source="CPomrfPhx8_Q5q7yHn4K-38" target="CPomrfPhx8_Q5q7yHn4K-14">
          <mxGeometry width="100" height="100" relative="1" as="geometry">
            <mxPoint x="421.13402061855686" y="548" as="sourcePoint" />
            <mxPoint x="519.0721649484535" y="448" as="targetPoint" />
          </mxGeometry>
        </mxCell>
        <mxCell id="CPomrfPhx8_Q5q7yHn4K-49" value="" style="edgeStyle=entityRelationEdgeStyle;fontSize=12;html=1;endArrow=ERmandOne;startArrow=ERmandOne;rounded=0;exitX=0.985;exitY=0.433;exitDx=0;exitDy=0;exitPerimeter=0;" edge="1" parent="CPomrfPhx8_Q5q7yHn4K-201" source="CPomrfPhx8_Q5q7yHn4K-9" target="CPomrfPhx8_Q5q7yHn4K-12">
          <mxGeometry width="100" height="100" relative="1" as="geometry">
            <mxPoint x="548.4536082474224" y="368" as="sourcePoint" />
            <mxPoint x="646.3917525773195" y="268" as="targetPoint" />
          </mxGeometry>
        </mxCell>
        <mxCell id="CPomrfPhx8_Q5q7yHn4K-50" value="" style="edgeStyle=entityRelationEdgeStyle;fontSize=12;html=1;endArrow=ERmandOne;startArrow=ERmandOne;rounded=0;exitX=1.009;exitY=0.467;exitDx=0;exitDy=0;exitPerimeter=0;entryX=0;entryY=0.367;entryDx=0;entryDy=0;entryPerimeter=0;" edge="1" parent="CPomrfPhx8_Q5q7yHn4K-201" source="CPomrfPhx8_Q5q7yHn4K-21" target="CPomrfPhx8_Q5q7yHn4K-10">
          <mxGeometry width="100" height="100" relative="1" as="geometry">
            <mxPoint x="195.87628865979377" y="320.5" as="sourcePoint" />
            <mxPoint x="393.71134020618547" y="309.5" as="targetPoint" />
          </mxGeometry>
        </mxCell>
        <mxCell id="CPomrfPhx8_Q5q7yHn4K-56" value="" style="rounded=0;whiteSpace=wrap;html=1;fillColor=none;" vertex="1" parent="CPomrfPhx8_Q5q7yHn4K-201">
          <mxGeometry width="950" height="910" as="geometry" />
        </mxCell>
        <mxCell id="CPomrfPhx8_Q5q7yHn4K-57" value="&lt;b style=&quot;font-size: 15px;&quot;&gt;MySQL&lt;/b&gt;" style="text;html=1;align=center;verticalAlign=middle;whiteSpace=wrap;rounded=0;fontSize=15;" vertex="1" parent="CPomrfPhx8_Q5q7yHn4K-201">
          <mxGeometry x="408.8917525773195" y="50" width="132.2164948453608" height="40" as="geometry" />
        </mxCell>
      </root>
    </mxGraphModel>
  </diagram>
</mxfile>
